<?xml version="1.0" standalone="no"?>
<!DOCTYPE svg PUBLIC "-//W3C//DTD SVG 20010904//EN"
 "http://www.w3.org/TR/2001/REC-SVG-20010904/DTD/svg10.dtd">
<svg version="1.0" xmlns="http://www.w3.org/2000/svg"
 width="512.000000pt" height="512.000000pt" viewBox="0 0 512.000000 512.000000"
 preserveAspectRatio="xMidYMid meet">

<g transform="translate(0.000000,512.000000) scale(0.100000,-0.100000)"
fill="#33FFE6" stroke="none">
<path d="M1515 5106 c-325 -54 -596 -220 -777 -476 -238 -336 -281 -735 -129
-1186 l47 -141 -67 -138 c-107 -219 -177 -453 -210 -700 -18 -135 -15 -439 5
-570 60 -390 201 -724 439 -1040 83 -110 302 -327 417 -412 795 -590 1845
-590 2640 0 115 85 334 302 417 412 192 255 335 554 401 840 58 252 73 572 38
805 -104 689 -494 1265 -1091 1610 -214 124 -508 227 -740 260 -142 20 -130
12 -182 112 -164 318 -452 537 -805 614 -100 22 -303 27 -403 10z m393 -365
c292 -85 518 -328 583 -626 18 -82 15 -282 -6 -380 -72 -348 -289 -725 -656
-1140 -53 -60 -108 -120 -122 -133 l-25 -23 -115 128 c-433 481 -664 910 -696
1290 -37 434 229 804 645 897 97 22 294 15 392 -13z m1467 -881 c105 -51 219
-122 320 -199 69 -52 255 -230 255 -243 0 -4 -129 -7 -286 -6 l-287 3 -22 75
c-35 117 -93 267 -141 362 -24 48 -44 90 -44 93 0 8 97 -32 205 -85z m-476
-152 c22 -46 58 -131 80 -190 l39 -108 -130 0 c-119 0 -130 1 -125 18 30 101
68 257 73 304 4 32 10 58 14 58 4 0 26 -37 49 -82z m214 -690 c4 -24 13 -88
21 -143 16 -102 30 -248 41 -412 l7 -93 -536 0 c-295 0 -536 3 -536 8 1 4 11
19 23 33 152 177 325 415 422 582 l39 67 257 0 256 0 6 -42z m1121 -35 c71
-148 126 -330 152 -498 7 -49 14 -96 14 -102 0 -10 -93 -13 -434 -13 l-435 0
-5 43 c-3 23 -8 94 -11 157 -5 101 -33 344 -51 453 l-7 37 371 0 370 0 36 -77z
m-3274 -214 c65 -94 174 -234 281 -361 l31 -38 -277 0 -278 0 7 53 c17 137 54
289 104 425 26 71 27 73 42 51 8 -13 49 -71 90 -130z m634 -781 c3 -24 8 -95
11 -158 5 -101 33 -344 51 -452 l7 -38 -371 0 -370 0 -36 77 c-71 148 -126
330 -152 498 -7 50 -14 96 -14 103 0 9 93 12 434 12 l435 0 5 -42z m1581 -50
c-11 -165 -25 -311 -41 -413 -8 -55 -17 -119 -21 -142 l-6 -43 -547 0 -547 0
-6 43 c-4 23 -13 87 -21 142 -16 102 -30 248 -41 413 l-7 92 622 0 622 0 -7
-92z m1225 80 c0 -7 -7 -53 -14 -103 -26 -168 -81 -350 -152 -498 l-36 -77
-370 0 -371 0 7 38 c18 108 46 351 51 452 3 63 8 134 11 158 l5 42 435 0 c341
0 434 -3 434 -12z m-2656 -1040 c46 -153 100 -298 147 -397 33 -68 58 -125 56
-127 -1 -1 -45 15 -97 37 -211 88 -400 213 -572 378 -59 57 -108 107 -108 112
0 5 125 9 285 9 220 0 286 -3 289 -12z m1235 -94 c-119 -327 -281 -534 -419
-534 -138 0 -300 207 -419 534 l-39 106 458 0 458 0 -39 -106z m971 97 c0 -5
-49 -55 -108 -112 -120 -116 -251 -213 -387 -288 -87 -49 -276 -133 -283 -126
-2 1 13 35 32 73 62 123 109 246 172 450 2 9 69 12 289 12 160 0 285 -4 285
-9z"/>
<path d="M1571 4414 c-209 -56 -361 -251 -361 -464 0 -133 47 -246 142 -342
93 -93 201 -138 333 -138 131 0 243 46 336 139 152 153 185 389 78 577 -103
182 -332 281 -528 228z m180 -351 c41 -25 72 -92 63 -138 -8 -45 -60 -100
-101 -108 -84 -17 -156 47 -155 136 2 96 111 158 193 110z"/>
</g>
</svg>
